<?xml version="1.0" encoding="utf-8"?>
<!-- Generator: Adobe Illustrator 26.1.0, SVG Export Plug-In . SVG Version: 6.00 Build 0)  -->
<svg version="1.1" id="图层_1" xmlns="http://www.w3.org/2000/svg" xmlns:xlink="http://www.w3.org/1999/xlink" x="0px" y="0px"
	 viewBox="0 0 215 64" style="enable-background:new 0 0 215 64;" xml:space="preserve">
<style type="text/css">
	.st0{fill:#A6A6A6;}
	.st1{fill:#318FFF;}
	.st2{fill:#FFFFFF;}
</style>
<path d="M8,0.1h199c4.4,0,8,3.6,8,8v47.8c0,4.4-3.6,8-8,8H8c-4.4,0-8-3.6-8-8V8.1C0,3.7,3.6,0.1,8,0.1z"/>
<path class="st0" d="M207,1.4c3.7,0,6.7,3,6.7,6.7v47.8c0,3.7-3,6.7-6.7,6.7H8c-3.7,0-6.7-3-6.7-6.7l0,0V8.1c0-3.7,3-6.7,6.7-6.7
	l0,0L207,1.4 M207,0.1H8c-4.4,0-8,3.6-8,8v47.8c0,4.4,3.6,8,8,8h199c4.4,0,8-3.6,8-8V8.1C215,3.7,211.4,0.1,207,0.1z"/>
<g>
	<path class="st1" d="M40.2,43.9v-5c-2.1-0.7-3.7-2.4-4.4-4.4h-5C31.8,39.2,35.5,42.9,40.2,43.9z"/>
	<circle class="st1" cx="42.6" cy="32.1" r="2.4"/>
	<path class="st1" d="M30.8,29.6h5c1-2.8,3.7-4.8,6.8-4.8s5.8,2,6.8,4.8h4.4c-0.1-0.1-0.2-0.2-0.3-0.3L44.2,20c-0.4,0-1,0-1.6,0
		C36.8,20,31.9,24.1,30.8,29.6z"/>
	<path class="st1" d="M25.7,32.1c0-8.3,6-15.2,14-16.6l-2.8-2.8c-1.5-1.5-3.9-1.5-5.4,0L14.8,29.4c-1.5,1.5-1.5,3.9,0,5.4l16.7,16.7
		c1.5,1.5,3.9,1.5,5.4,0l2.8-2.8C31.8,47.3,25.7,40.4,25.7,32.1z"/>
	<path class="st1" d="M45.1,38.9v4.5l8.6-8.6c0.1-0.1,0.2-0.2,0.3-0.3h-4.4C48.7,36.5,47.1,38.2,45.1,38.9z"/>
</g>
<g>
	<path class="st2" d="M66.5,13.2h3.1c1,0,1.9,0.2,2.7,0.6c0.8,0.4,1.3,1,1.7,1.7c0.4,0.7,0.6,1.6,0.6,2.6s-0.2,1.8-0.6,2.6
		c-0.4,0.7-1,1.3-1.7,1.7c-0.8,0.4-1.6,0.6-2.7,0.6h-3.1V13.2z M69.6,21.6c1.1,0,2-0.3,2.6-0.9s0.9-1.5,0.9-2.6s-0.3-1.9-0.9-2.6
		c-0.6-0.6-1.5-0.9-2.6-0.9H68v7H69.6z"/>
	<path class="st2" d="M78.4,22.5c-0.8-0.5-1.4-1.1-1.8-1.9S75.9,19,75.9,18s0.2-1.8,0.7-2.6c0.4-0.8,1.1-1.4,1.8-1.9
		c0.8-0.5,1.6-0.7,2.6-0.7s1.8,0.2,2.6,0.7c0.8,0.5,1.4,1.1,1.8,1.9c0.4,0.8,0.7,1.6,0.7,2.6s-0.2,1.8-0.7,2.6
		c-0.4,0.8-1.1,1.4-1.8,1.9S82,23.2,81,23.2S79.2,23,78.4,22.5z M82.9,21.3c0.5-0.3,1-0.8,1.3-1.3c0.3-0.6,0.5-1.2,0.5-1.9
		s-0.2-1.4-0.5-1.9c-0.3-0.6-0.7-1-1.3-1.3c-0.5-0.3-1.1-0.5-1.8-0.5s-1.3,0.2-1.8,0.5s-1,0.8-1.3,1.3c-0.3,0.6-0.5,1.2-0.5,1.9
		s0.2,1.4,0.5,1.9c0.3,0.6,0.7,1,1.3,1.3c0.5,0.3,1.1,0.5,1.8,0.5S82.3,21.6,82.9,21.3z"/>
	<path class="st2" d="M86.9,13.2h1.7l1.6,6.4l0.2,0.9h0.1l0.2-0.9l2-6.4H94l1.9,6.4l0.2,0.8h0.1l0.2-0.8l1.6-6.4h1.7L97,23h-1.6
		l-1.9-6.5l-0.2-0.9h-0.1L93,16.5L91,23h-1.6L86.9,13.2z"/>
	<path class="st2" d="M101,13.2h1.8l4.5,7.2h0.1l-0.1-1.9v-5.3h1.5V23h-1.6l-4.7-7.6h-0.1l0.1,1.9V23H101V13.2z"/>
	<path class="st2" d="M111,13.2h1.5v8.4h4.2V23H111V13.2z"/>
	<path class="st2" d="M120,22.5c-0.8-0.5-1.4-1.1-1.8-1.9s-0.7-1.6-0.7-2.6s0.2-1.8,0.7-2.6c0.4-0.8,1.1-1.4,1.8-1.9
		c0.8-0.5,1.6-0.7,2.6-0.7s1.8,0.2,2.6,0.7c0.8,0.5,1.4,1.1,1.8,1.9c0.4,0.8,0.7,1.6,0.7,2.6s-0.2,1.8-0.7,2.6
		c-0.4,0.8-1.1,1.4-1.8,1.9s-1.6,0.7-2.6,0.7S120.8,23,120,22.5z M124.5,21.3c0.5-0.3,1-0.8,1.3-1.3c0.3-0.6,0.5-1.2,0.5-1.9
		s-0.2-1.4-0.5-1.9c-0.3-0.6-0.7-1-1.3-1.3c-0.5-0.3-1.1-0.5-1.8-0.5s-1.3,0.2-1.8,0.5s-1,0.8-1.3,1.3c-0.3,0.6-0.5,1.2-0.5,1.9
		s0.2,1.4,0.5,1.9c0.3,0.6,0.7,1,1.3,1.3c0.5,0.3,1.1,0.5,1.8,0.5S123.9,21.6,124.5,21.3z"/>
	<path class="st2" d="M132,13.2h1.7l3.7,9.8h-1.7l-0.9-2.5h-4L130,23h-1.7L132,13.2z M134.4,19.1l-1.1-3l-0.4-1.1h-0.1l-0.4,1.1
		l-1.1,3H134.4z"/>
	<path class="st2" d="M138.8,13.2h3.1c1,0,1.9,0.2,2.7,0.6c0.8,0.4,1.3,1,1.7,1.7s0.6,1.6,0.6,2.6s-0.2,1.8-0.6,2.6
		c-0.4,0.7-1,1.3-1.7,1.7c-0.8,0.4-1.6,0.6-2.7,0.6h-3.1V13.2z M141.9,21.6c1.1,0,2-0.3,2.6-0.9s0.9-1.5,0.9-2.6s-0.3-1.9-0.9-2.6
		c-0.6-0.6-1.5-0.9-2.6-0.9h-1.6v7H141.9z"/>
</g>
<g>
	<path class="st2" d="M66.4,30.7h6.3c2,0,3.8,0.4,5.3,1.2c1.5,0.8,2.7,2,3.5,3.5s1.2,3.2,1.2,5.1c0,1.9-0.4,3.6-1.2,5.1
		c-0.8,1.5-2,2.6-3.5,3.5c-1.5,0.8-3.3,1.2-5.3,1.2h-6.3V30.7z M72.6,47.5c2.2,0,4-0.6,5.2-1.8s1.8-2.9,1.8-5.1s-0.6-3.9-1.8-5.1
		c-1.2-1.2-3-1.8-5.2-1.8h-3.2v13.9h3.2V47.5z"/>
	<path class="st2" d="M86.1,30.7h4.1l5.7,14.9H96l5.8-14.9h4.1v19.6h-3V39.2l0.2-3.5h-0.2l-5.7,14.6h-2.4l-5.7-14.6h-0.2l0.2,3.5
		v11.1h-3C86.1,50.3,86.1,30.7,86.1,30.7z"/>
	<path class="st2" d="M108,30.7h3.3l4.4,13l0.7,2.2h0.2l0.7-2.2l4.6-13h3.3l-7.1,19.6H115L108,30.7z"/>
	<path class="st2" d="M139,30.7h3.4l7.4,19.6h-3.3l-1.8-5h-8l-1.8,5h-3.3L139,30.7z M143.8,42.5l-2.2-6l-0.7-2.2h-0.2l-0.7,2.2
		l-2.2,6H143.8z"/>
	<path class="st2" d="M152.5,30.7h6.7c1.2,0,2.2,0.3,3.2,0.8s1.8,1.2,2.3,2.1c0.6,0.9,0.9,1.9,0.9,3.1c0,1.2-0.3,2.2-0.9,3.1
		c-0.6,0.9-1.4,1.6-2.3,2.1c-1,0.5-2.1,0.8-3.2,0.8h-3.7v7.6h-3V30.7z M159.3,39.9c1,0,1.8-0.3,2.4-0.9c0.6-0.6,0.9-1.4,0.9-2.2
		s-0.3-1.6-0.9-2.2c-0.6-0.6-1.4-0.9-2.4-0.9h-3.8V40L159.3,39.9L159.3,39.9z"/>
	<path class="st2" d="M168.7,30.7h3v9.4h0.2l8-9.4h3.7v0.2l-7.2,8.2l7.8,11v0.2h-3.7l-6.2-8.8l-2.7,3.1v5.8h-3L168.7,30.7
		L168.7,30.7z"/>
</g>
</svg>
