<?xml version="1.0" standalone="no"?><!DOCTYPE svg PUBLIC "-//W3C//DTD SVG 1.1//EN" "http://www.w3.org/Graphics/SVG/1.1/DTD/svg11.dtd"><svg t="1690269609481" class="icon" viewBox="0 0 1024 1024" version="1.1" xmlns="http://www.w3.org/2000/svg" p-id="15023" xmlns:xlink="http://www.w3.org/1999/xlink" width="200" height="200" fill="#ffffff"><path d="M808.533333 661.333333a106.709333 106.709333 0 0 0-168.533333-64V366.826667a42.666667 42.666667 0 0 1 61.312-38.4l128 62.186666A42.666667 42.666667 0 0 1 853.333333 429.013333V618.666667a42.666667 42.666667 0 0 1-42.666666 42.666666h-2.133334z m-362.666666 0a106.709333 106.709333 0 0 0-209.066667 0H213.333333a42.666667 42.666667 0 0 1-42.666666-42.666666V277.333333a42.666667 42.666667 0 0 1 42.666666-42.666666h341.333334a42.666667 42.666667 0 0 1 42.666666 42.666666v341.333334a42.666667 42.666667 0 0 1-42.666666 42.666666h-108.8zM341.333333 746.666667a64 64 0 1 0 0-128 64 64 0 0 0 0 128z m362.666667 0a64 64 0 1 0 0-128 64 64 0 0 0 0 128z" p-id="15024"></path></svg>