<svg id="Layer_1" data-name="Layer 1" xmlns="http://www.w3.org/2000/svg" viewBox="0 0 444 370.1"><defs><style>.cls-1{fill-rule:evenodd;}</style></defs><path class="cls-1" d="M444,370H242.2l19.3-16.3c45.6-38.4,69.9-58.3,129.4-55.8a15,15,0,0,0,15.7-14.3V48.2H444ZM0,48.2H37.5V283a15,15,0,0,0,15,15h.7c59.5-2.6,83.9,17.3,129.4,55.8l19.3,16.3H0ZM77.2.6,67.4,0V267.6l8.8.4c55.1,2.5,74.1,22.1,117.5,56.1L208.9,336,205,77.8l-2.4-2.6C161,30.8,137.9,4.1,77.2.6ZM376.6,0l-9.7.5c-62.7,3.6-87.5,32-129.3,78.8L235.2,82,239,332.6l14.5-11c42.8-32.6,60.6-51.3,114.4-53.7l8.8-.4Z"/></svg>