<?xml version="1.0" standalone="no"?><!DOCTYPE svg PUBLIC "-//W3C//DTD SVG 1.1//EN" "http://www.w3.org/Graphics/SVG/1.1/DTD/svg11.dtd"><svg t="1690270376641" class="icon" viewBox="0 0 1024 1024" version="1.1" xmlns="http://www.w3.org/2000/svg" p-id="16676" xmlns:xlink="http://www.w3.org/1999/xlink" width="200" height="200" fill="#ffffff"><path d="M829.44 385.28L657.493333 213.333333H469.333333v85.333334h153.173334l85.333333 85.333333H213.333333C93.866667 384 0 477.866667 0 597.333333s93.866667 213.333333 213.333333 213.333334c104.96 0 189.866667-72.106667 209.066667-170.666667h70.4l118.186667-118.186667A208.341333 208.341333 0 0 0 597.333333 597.333333c0 119.466667 93.866667 213.333333 213.333334 213.333334s213.333333-93.866667 213.333333-213.333334c0-113.066667-84.053333-203.52-194.56-212.053333zM333.653333 640c-17.92 49.066667-65.706667 85.333333-120.32 85.333333-69.546667 0-128-58.453333-128-128s58.453333-128 128-128c54.613333 0 102.4 36.266667 120.32 85.333334H213.333333v85.333333h120.32zM810.666667 725.333333c-70.826667 0-128-57.173333-128-128s57.173333-128 128-128 128 57.173333 128 128-57.173333 128-128 128z" fill="" p-id="16677"></path></svg>