<svg id="Capa_1" data-name="Capa 1" xmlns="http://www.w3.org/2000/svg" viewBox="0 0 511.98 512"><rect x="-51.72" y="217.59" width="615.41" height="76.8" transform="translate(-106.04 255.99) rotate(-45)"/><path d="M391.51,271.06A120.47,120.47,0,1,0,512,391.54,120.61,120.61,0,0,0,391.51,271.06Zm0,164.15a43.67,43.67,0,1,1,43.67-43.66A43.72,43.72,0,0,1,391.51,435.21Z"/><path d="M120.46,240.93A120.47,120.47,0,1,0,0,120.46,120.62,120.62,0,0,0,120.46,240.93Zm0-164.13A43.67,43.67,0,1,1,76.8,120.46,43.72,43.72,0,0,1,120.46,76.8Z"/></svg>