<svg id="Capa_1" data-name="Capa 1" xmlns="http://www.w3.org/2000/svg" viewBox="0 0 263.84 365.44"><path d="M162.19,274.07H93.67A11.72,11.72,0,0,0,82.25,285.5V354a11.71,11.71,0,0,0,11.42,11.42h68.52A11.71,11.71,0,0,0,173.61,354V285.5a11.72,11.72,0,0,0-11.42-11.43Z"/><path d="M252.13,69a118.33,118.33,0,0,0-30.26-36.41A155.1,155.1,0,0,0,180.18,8.85a127.9,127.9,0,0,0-46-8.85Q47.42,0,1.74,76a11.23,11.23,0,0,0-1.57,8A11.08,11.08,0,0,0,4.6,91.07l46.82,35.69a13.58,13.58,0,0,0,7.14,2.29c3.43,0,6.37-1.53,8.85-4.57Q88,98.79,98,91.64q12.29-8.26,30.83-8.27,17.42,0,30.69,9.13t13.28,21.13q0,13.41-7.14,21.7t-24,16q-22.26,10-40.82,31T82.25,227v12.85a21.46,21.46,0,0,0,3,10.71q3,5.28,7.28,5.28h68.52q4.57,0,8-4.43a14.93,14.93,0,0,0,3.42-9.27q0-7.14,7.85-19.13a55.87,55.87,0,0,1,19.56-18.56q11.13-6.28,17.41-10.14a143.1,143.1,0,0,0,16.43-12.42,81.81,81.81,0,0,0,15.69-17q5.58-8.42,10-21.84a91.28,91.28,0,0,0,4.43-28.84A93.51,93.51,0,0,0,252.13,69Z"/></svg>