<svg id="Layer_1" data-name="Layer 1" xmlns="http://www.w3.org/2000/svg" viewBox="0 0 498.58 512"><path d="M490,312.11l-47.06-36.8A187.32,187.32,0,0,0,444,256a179.27,179.27,0,0,0-1.11-19.33L490,199.83c8.75-6.91,11.14-19.18,5.57-29.4L446.62,85.76c-5.23-9.56-16.68-14.46-28.31-10.18l-55.53,22.3a190,190,0,0,0-33.34-19.35L321,19.63A22.66,22.66,0,0,0,298.38,0H200.24a22.6,22.6,0,0,0-22.57,19.46L169.2,78.57a197,197,0,0,0-33.28,19.35L80.24,75.56c-10.43-4-22.91.49-28.09,10l-49,84.78a22.93,22.93,0,0,0,5.55,29.54l47.06,36.8A184.9,184.9,0,0,0,54.64,256a188.36,188.36,0,0,0,1.11,19.33L8.65,312.15c-8.75,6.93-11.12,19.2-5.55,29.4L52,426.22c5.23,9.54,16.58,14.48,28.31,10.18l55.53-22.3a191.6,191.6,0,0,0,33.32,19.35l8.45,58.88A22.64,22.64,0,0,0,200.26,512H298.4c11.5,0,21.22-8.45,22.59-19.46l8.47-59.09a196.62,196.62,0,0,0,33.28-19.37l55.68,22.36a23,23,0,0,0,8.36,1.58,22.52,22.52,0,0,0,19.73-11.57l49.16-85.12A23,23,0,0,0,490,312.11ZM249.31,341.33A85.33,85.33,0,1,1,334.64,256,85.42,85.42,0,0,1,249.31,341.33Z"/></svg>