<svg id="图层_1" data-name="图层 1" xmlns="http://www.w3.org/2000/svg" viewBox="0 0 373.33 458.67"><g id="Icon"><path class="cls-1" fill-rule="evenodd" d="M186.67,0c-79.43,0-144,65.15-144,145.51,0,27.23,12,61,29.44,94.68,38.42,74.18,102.42,148.89,102.42,148.89a16,16,0,0,0,24.28,0s64-74.71,102.42-148.89c17.45-33.68,29.44-67.45,29.44-94.68C330.67,65.15,266.09,0,186.67,0Zm0,85.33A58.67,58.67,0,1,0,245.33,144,58.69,58.69,0,0,0,186.67,85.33Z"/><path class="cls-1" fill-rule="evenodd" d="M288.73,344c17.34,5.21,31.63,11.65,41.51,19.2,6.4,4.87,11.09,9.62,11.09,15.43,0,3.41-1.94,6.5-4.67,9.6-4.52,5.1-11.24,9.68-19.56,14-29.4,15-76.93,24.45-130.43,24.45s-101-9.41-130.44-24.45c-8.32-4.27-15-8.85-19.56-14-2.73-3.1-4.67-6.19-4.67-9.6,0-5.81,4.69-10.56,11.09-15.43,9.88-7.55,24.17-14,41.52-19.2a16,16,0,0,0-9.22-30.65C49,321.34,28.46,332.25,16.13,344.3,5.29,354.86,0,366.68,0,378.67c0,15,8.47,29.91,25.69,42.36,30.2,21.85,90.88,37.64,161,37.64s130.77-15.79,161-37.64c17.21-12.45,25.68-27.39,25.68-42.36,0-12-5.29-23.81-16.12-34.37-12.34-12.05-32.86-23-59.27-30.91A16,16,0,0,0,288.73,344Z"/></g></svg>