<svg id="Слой_1" enable-background="new 0 0 512 512" height="512" viewBox="0 0 512 512" width="512" xmlns="http://www.w3.org/2000/svg"><g><path d="m328.4 256 168.6-168.6c9.667-9.667 15-22.533 15-36.2s-5.333-26.533-15-36.2-22.533-15-36.2-15-26.533 5.333-36.2 15l-168.6 168.6-168.6-168.6c-9.667-9.667-22.533-15-36.2-15s-26.533 5.333-36.2 15-15 22.533-15 36.2 5.333 26.533 15 36.2l168.6 168.6-168.6 168.6c-9.667 9.666-15 22.533-15 36.2s5.333 26.533 15 36.2c9.683 9.667 22.533 15 36.2 15s26.517-5.333 36.2-15l168.6-168.6 168.6 168.6c9.683 9.667 22.533 15 36.2 15s26.517-5.333 36.2-15c9.667-9.666 15-22.533 15-36.2s-5.333-26.533-15-36.2z"/></g></svg>